<svg xmlns="http://www.w3.org/2000/svg" xmlns:xlink="http://www.w3.org/1999/xlink" version="1.0" x="0" y="0" width="2400" height="569.7143584933704" viewBox="45.315202178955076 95.40220016479492 249.36959564208985 59.195599670410154" preserveAspectRatio="xMidYMid meet" color-interpolation-filters="sRGB"><g><defs><linearGradient id="92" x1="0%" y1="0%" x2="100%" y2="0%"><stop offset="0%" stop-color="#fa71cd"></stop> <stop offset="100%" stop-color="#9b59b6"></stop></linearGradient><linearGradient id="93" x1="0%" y1="0%" x2="100%" y2="0%"><stop offset="0%" stop-color="#f9d423"></stop> <stop offset="100%" stop-color="#f83600"></stop></linearGradient><linearGradient id="94" x1="0%" y1="0%" x2="100%" y2="0%"><stop offset="0%" stop-color="#0064d2"></stop> <stop offset="100%" stop-color="#1cb0f6"></stop></linearGradient><linearGradient id="95" x1="0%" y1="0%" x2="100%" y2="0%"><stop offset="0%" stop-color="#f00978"></stop> <stop offset="100%" stop-color="#3f51b1"></stop></linearGradient><linearGradient id="96" x1="0%" y1="0%" x2="100%" y2="0%"><stop offset="0%" stop-color="#7873f5"></stop> <stop offset="100%" stop-color="#ec77ab"></stop></linearGradient><linearGradient id="97" x1="0%" y1="0%" x2="100%" y2="0%"><stop offset="0%" stop-color="#f9d423"></stop> <stop offset="100%" stop-color="#e14fad"></stop></linearGradient><linearGradient id="98" x1="0%" y1="0%" x2="100%" y2="0%"><stop offset="0%" stop-color="#009efd"></stop> <stop offset="100%" stop-color="#2af598"></stop></linearGradient><linearGradient id="99" x1="0%" y1="0%" x2="100%" y2="0%"><stop offset="0%" stop-color="#ffcc00"></stop> <stop offset="100%" stop-color="#00b140"></stop></linearGradient><linearGradient id="100" x1="0%" y1="0%" x2="100%" y2="0%"><stop offset="0%" stop-color="#d51007"></stop> <stop offset="100%" stop-color="#ff8177"></stop></linearGradient><linearGradient id="102" x1="0%" y1="0%" x2="100%" y2="0%"><stop offset="0%" stop-color="#a2b6df"></stop> <stop offset="100%" stop-color="#0c3483"></stop></linearGradient><linearGradient id="103" x1="0%" y1="0%" x2="100%" y2="0%"><stop offset="0%" stop-color="#7ac5d8"></stop> <stop offset="100%" stop-color="#eea2a2"></stop></linearGradient><linearGradient id="104" x1="0%" y1="0%" x2="100%" y2="0%"><stop offset="0%" stop-color="#00ecbc"></stop> <stop offset="100%" stop-color="#007adf"></stop></linearGradient><linearGradient id="105" x1="0%" y1="0%" x2="100%" y2="0%"><stop offset="0%" stop-color="#b88746"></stop> <stop offset="100%" stop-color="#fdf5a6"></stop></linearGradient></defs><g fill="#e69138" class="endsvg" transform="translate(47.76000213623047,97.84700012207031)"><g class="tp-name" transform="translate(0,0)"><g><rect stroke-width="2" class="i-icon-bg" x="0" y="0" width="244.47999572753906" height="40.150001525878906" fill-opacity="0"></rect> </g> <g transform="translate(0,0)"><g><g><rect stroke-width="2" class="i-icon-bg" x="0" y="0" width="134.64999389648438" height="40.150001525878906" fill-opacity="0"></rect> </g> <g transform="translate(5,5)"><g><g transform="scale(1)"><path d="M23.81-23.77C21.66-28.16 17.06-29.42 12.64-29.42C7.39-29.37 1.63-26.98 1.63-21.13C1.63-14.75 6.99-13.20 12.80-12.51C16.58-12.11 19.38-11.01 19.38-8.33C19.38-5.24 16.21-4.06 12.84-4.06C9.39-4.06 6.09-5.44 4.83-8.57L0.37-6.26C2.48-1.06 6.95 0.73 12.76 0.73C19.10 0.73 24.70-1.99 24.70-8.33C24.70-15.11 19.18-16.66 13.25-17.39C9.83-17.80 6.91-18.49 6.91-20.96C6.91-23.08 8.82-24.74 12.80-24.74C15.89-24.74 18.57-23.20 19.54-21.57ZM28.85-28.44L28.85 0L48.84 0L48.84-4.96L34.21-4.96L34.21-28.44ZM75.20 0L81.05 0L68.30-28.44L62.45-28.44L49.69 0L55.50 0L57.94-5.36L72.81-5.36ZM70.65-10.36L60.09-10.36L65.37-22.47ZM86.17 0L91.54 0L91.54-23.56L100.56-23.56L100.56-28.44L77.15-28.44L77.15-23.56L86.17-23.56ZM125.02-5.28L109.05-5.28L109.05-11.70L124.45-11.70L124.45-16.70L109.05-16.70L109.05-23.24L125.02-23.24L125.02-28.44L103.73-28.44L103.73 0L125.02 0Z" transform="translate(-0.3656597774244834, 29.415297650591775)"></path></g></g></g></g> <g transform="translate(134.64999389648438,0)" mask="url(#48c9579d-f559-438d-bbe8-b96f7f633627)"><g><rect stroke-width="2" class="i-icon-bg" x="0" y="0" width="109.83000183105469" height="40.150001525878906" fill="#6fa8dc"></rect> </g> <g transform="translate(5,5)"><g fill="#6fa8dc"><g transform="scale(1)"><path d="M22.83-24.01C20.03-28.20 16.50-28.85 12.43-28.85C7.76-28.85 1.50-26.98 1.63-20.96C1.63-15.72 6.95-14.67 12.15-13.65C16.82-12.76 21.53-11.82 21.49-7.56C21.49-2.52 15.93-1.54 12.43-1.54C8.94-1.54 4.47-3.25 2.72-6.70L0.77-5.73C2.97-1.38 8.00 0.45 12.43 0.45C17.19 0.45 23.65-1.10 23.69-7.52C23.69-13.65 18.00-14.63 12.51-15.68C7.72-16.58 3.82-17.43 3.82-21.05C3.82-25.60 9.10-26.82 12.43-26.82C15.64-26.77 18.97-26.29 21.05-22.96ZM53.31 0L40.55-28.44L38.15-28.44L25.39 0L27.75 0L30.84-6.99L47.82-6.99L50.95 0ZM31.69-9.02L39.33-26.33L46.97-9.02ZM58.71-26.25L75.65-26.25L75.65-28.44L56.51-28.44L56.51 0.04L58.71 0.04L58.71-12.84L75.08-12.84L75.08-14.91L58.71-14.91ZM82.64-26.37L100.11-26.37L100.11-28.44L80.49-28.44L80.49 0L100.60 0L100.60-2.11L82.64-2.11L82.64-13.33L99.30-13.33L99.30-15.32L82.64-15.32Z" transform="translate(-0.7719484190072426, 29.415297650591775)"></path></g></g></g></g></g></g> <g fill-rule="" class="tp-slogan" fill="#6fa8dc" transform="translate(49.29999542236328,46.150001525878906)"> <g transform="scale(1, 1)"><g transform="scale(1)"><path d="M1.08-7.87L1.08 0L2.00 0L2.00-4.33C2.00-4.68 1.99-5.07 1.96-5.50C1.92-5.92 1.90-6.31 1.87-6.66L1.92-6.66L2.54-4.91L4.07-0.79L4.63-0.79L6.14-4.91L6.78-6.66L6.83-6.66C6.80-6.31 6.77-5.92 6.74-5.50C6.71-5.07 6.70-4.68 6.70-4.33L6.70 0L7.64 0L7.64-7.87L6.47-7.87L4.96-3.65L4.40-2.04L4.36-2.04L3.78-3.65L2.26-7.87ZM12.71 0.14C13.20 0.14 13.66 0.05 14.07-0.14C14.48-0.34 14.84-0.61 15.14-0.97C15.44-1.32 15.67-1.75 15.83-2.26C16.00-2.77 16.08-3.34 16.08-3.97C16.08-4.60 16.00-5.16 15.83-5.66C15.67-6.16 15.44-6.58 15.14-6.93C14.84-7.28 14.48-7.55 14.07-7.73C13.66-7.92 13.20-8.02 12.71-8.02C12.21-8.02 11.76-7.92 11.35-7.74C10.93-7.56 10.58-7.29 10.28-6.94C9.99-6.59 9.76-6.17 9.59-5.67C9.43-5.17 9.35-4.60 9.35-3.97C9.35-3.34 9.43-2.77 9.59-2.26C9.76-1.75 9.99-1.32 10.28-0.97C10.58-0.61 10.93-0.34 11.35-0.14C11.76 0.05 12.21 0.14 12.71 0.14ZM12.71-0.73C12.36-0.73 12.04-0.81 11.75-0.96C11.47-1.11 11.23-1.33 11.02-1.61C10.82-1.90 10.66-2.24 10.55-2.63C10.44-3.03 10.38-3.48 10.38-3.97C10.38-4.46 10.44-4.90 10.55-5.29C10.66-5.68 10.82-6.02 11.02-6.29C11.23-6.56 11.47-6.77 11.75-6.92C12.04-7.07 12.36-7.14 12.71-7.14C13.06-7.14 13.38-7.07 13.66-6.92C13.95-6.77 14.19-6.56 14.39-6.29C14.60-6.02 14.76-5.68 14.87-5.29C14.98-4.90 15.04-4.46 15.04-3.97C15.04-3.48 14.98-3.03 14.87-2.63C14.76-2.24 14.60-1.90 14.39-1.61C14.19-1.33 13.95-1.11 13.66-0.96C13.38-0.81 13.06-0.73 12.71-0.73ZM17.77-7.87L17.77 0L19.79 0C20.38 0 20.90-0.09 21.36-0.27C21.82-0.45 22.20-0.71 22.51-1.05C22.82-1.39 23.06-1.81 23.22-2.30C23.38-2.79 23.46-3.35 23.46-3.97C23.46-5.23 23.14-6.19 22.51-6.86C21.88-7.54 20.96-7.87 19.74-7.87ZM19.67-0.82L18.77-0.82L18.77-7.06L19.67-7.06C20.59-7.06 21.28-6.79 21.74-6.26C22.20-5.74 22.43-4.97 22.43-3.97C22.43-2.97 22.20-2.20 21.74-1.64C21.28-1.09 20.59-0.82 19.67-0.82ZM25.15-7.87L25.15 0L29.81 0L29.81-0.85L26.15-0.85L26.15-3.71L29.14-3.71L29.14-4.56L26.15-4.56L26.15-7.03L29.69-7.03L29.69-7.87ZM32.47-4.14L32.47-7.07L33.79-7.07C34.41-7.07 34.88-6.96 35.21-6.76C35.54-6.55 35.70-6.18 35.70-5.66C35.70-5.15 35.54-4.77 35.21-4.52C34.88-4.27 34.41-4.14 33.79-4.14ZM35.80 0L36.92 0L34.93-3.43C35.47-3.57 35.90-3.82 36.22-4.19C36.54-4.56 36.70-5.05 36.70-5.66C36.70-6.07 36.63-6.42 36.49-6.70C36.36-6.98 36.17-7.20 35.92-7.38C35.68-7.56 35.39-7.68 35.05-7.76C34.71-7.83 34.34-7.87 33.94-7.87L31.48-7.87L31.48 0L32.47 0L32.47-3.32L33.90-3.32ZM38.45-7.87L38.45 0L39.40 0L39.40-4.12C39.40-4.53 39.38-4.95 39.35-5.36C39.33-5.77 39.30-6.18 39.26-6.58L39.31-6.58L40.16-4.96L43.02 0L44.05 0L44.05-7.87L43.10-7.87L43.10-3.80C43.10-3.39 43.12-2.97 43.15-2.54C43.17-2.11 43.20-1.70 43.22-1.30L43.18-1.30L42.32-2.93L39.48-7.87ZM50.27-7.03L50.27 0L51.28 0L51.28-7.03L53.65-7.03L53.65-7.87L47.89-7.87L47.89-7.03ZM57.94-3.20L55.57-3.20L55.94-4.40C56.09-4.84 56.22-5.28 56.35-5.72C56.48-6.15 56.60-6.60 56.72-7.06L56.77-7.06C56.90-6.60 57.03-6.15 57.16-5.72C57.28-5.28 57.42-4.84 57.56-4.40ZM58.19-2.40L58.93 0L60.00 0L57.34-7.87L56.21-7.87L53.54 0L54.56 0L55.32-2.40ZM61.12-7.87L61.12 0L63.62 0C64.06 0 64.47-0.05 64.84-0.14C65.20-0.24 65.52-0.38 65.78-0.58C66.05-0.77 66.25-1.01 66.40-1.30C66.54-1.58 66.61-1.92 66.61-2.30C66.61-2.85 66.45-3.28 66.13-3.59C65.81-3.90 65.36-4.10 64.79-4.19L64.79-4.24C65.25-4.36 65.60-4.57 65.82-4.89C66.04-5.21 66.16-5.56 66.16-5.95C66.16-6.30 66.09-6.59 65.96-6.83C65.83-7.08 65.64-7.28 65.41-7.43C65.17-7.58 64.89-7.69 64.55-7.76C64.22-7.84 63.86-7.87 63.46-7.87ZM63.28-4.51L62.11-4.51L62.11-7.08L63.32-7.08C63.94-7.08 64.40-6.99 64.71-6.80C65.02-6.61 65.17-6.30 65.17-5.87C65.17-5.43 65.03-5.09 64.73-4.86C64.44-4.63 63.96-4.51 63.28-4.51ZM63.48-0.79L62.11-0.79L62.11-3.77L63.48-3.77C64.18-3.77 64.71-3.65 65.08-3.43C65.44-3.20 65.63-2.84 65.63-2.35C65.63-1.82 65.44-1.42 65.06-1.17C64.69-0.92 64.16-0.79 63.48-0.79ZM68.17-7.87L68.17 0L72.61 0L72.61-0.85L69.17-0.85L69.17-7.87ZM74.00-7.87L74.00 0L78.66 0L78.66-0.85L75-0.85L75-3.71L77.99-3.71L77.99-4.56L75-4.56L75-7.03L78.54-7.03L78.54-7.87ZM81.96-7.03L81.96 0L82.97 0L82.97-7.03L85.34-7.03L85.34-7.87L79.58-7.87L79.58-7.03ZM89.21-1.72L88.61-1.02C88.95-0.66 89.36-0.38 89.83-0.17C90.30 0.04 90.82 0.14 91.37 0.14C91.78 0.14 92.16 0.09 92.48-0.03C92.81-0.15 93.09-0.31 93.32-0.51C93.56-0.71 93.73-0.95 93.86-1.22C93.98-1.50 94.04-1.79 94.04-2.10C94.04-2.39 94.00-2.64 93.92-2.86C93.83-3.08 93.72-3.27 93.58-3.44C93.43-3.60 93.26-3.75 93.06-3.87C92.86-3.99 92.65-4.10 92.42-4.20L91.31-4.68C91.15-4.74 90.99-4.81 90.84-4.89C90.69-4.97 90.55-5.05 90.42-5.15C90.29-5.25 90.19-5.37 90.11-5.50C90.04-5.63 90.00-5.80 90.00-5.99C90.00-6.35 90.13-6.63 90.40-6.83C90.67-7.04 91.02-7.14 91.46-7.14C91.83-7.14 92.16-7.07 92.45-6.94C92.75-6.81 93.01-6.63 93.25-6.40L93.79-7.04C93.51-7.33 93.17-7.57 92.77-7.75C92.37-7.93 91.94-8.02 91.46-8.02C91.10-8.02 90.77-7.96 90.47-7.86C90.17-7.76 89.91-7.61 89.69-7.42C89.47-7.23 89.30-7.01 89.18-6.76C89.05-6.50 88.99-6.22 88.99-5.93C88.99-5.64 89.04-5.39 89.14-5.17C89.23-4.95 89.36-4.76 89.51-4.60C89.66-4.44 89.83-4.30 90.02-4.19C90.22-4.08 90.40-3.98 90.59-3.90L91.72-3.41C91.90-3.32 92.07-3.24 92.23-3.16C92.39-3.08 92.53-2.99 92.65-2.89C92.76-2.79 92.85-2.67 92.92-2.53C92.99-2.39 93.02-2.22 93.02-2.02C93.02-1.63 92.88-1.32 92.59-1.09C92.30-0.85 91.90-0.73 91.38-0.73C90.97-0.73 90.58-0.82 90.20-1.00C89.82-1.18 89.49-1.42 89.21-1.72ZM98.50 0.14C98.99 0.14 99.45 0.05 99.86-0.14C100.27-0.34 100.63-0.61 100.93-0.97C101.23-1.32 101.46-1.75 101.62-2.26C101.79-2.77 101.87-3.34 101.87-3.97C101.87-4.60 101.79-5.16 101.62-5.66C101.46-6.16 101.23-6.58 100.93-6.93C100.63-7.28 100.27-7.55 99.86-7.73C99.45-7.92 98.99-8.02 98.50-8.02C98.00-8.02 97.55-7.92 97.13-7.74C96.72-7.56 96.37-7.29 96.07-6.94C95.78-6.59 95.55-6.17 95.38-5.67C95.22-5.17 95.14-4.60 95.14-3.97C95.14-3.34 95.22-2.77 95.38-2.26C95.55-1.75 95.78-1.32 96.07-0.97C96.37-0.61 96.72-0.34 97.13-0.14C97.55 0.05 98.00 0.14 98.50 0.14ZM98.50-0.73C98.14-0.73 97.83-0.81 97.54-0.96C97.26-1.11 97.01-1.33 96.81-1.61C96.61-1.90 96.45-2.24 96.34-2.63C96.22-3.03 96.17-3.48 96.17-3.97C96.17-4.46 96.22-4.90 96.34-5.29C96.45-5.68 96.61-6.02 96.81-6.29C97.01-6.56 97.26-6.77 97.54-6.92C97.83-7.07 98.14-7.14 98.50-7.14C98.85-7.14 99.17-7.07 99.45-6.92C99.73-6.77 99.98-6.56 100.18-6.29C100.39-6.02 100.54-5.68 100.66-5.29C100.77-4.90 100.82-4.46 100.82-3.97C100.82-3.48 100.77-3.03 100.66-2.63C100.54-2.24 100.39-1.90 100.18-1.61C99.98-1.33 99.73-1.11 99.45-0.96C99.17-0.81 98.85-0.73 98.50-0.73ZM103.56-7.87L103.56 0L108.00 0L108.00-0.85L104.56-0.85L104.56-7.87ZM109.01-7.87L109.01-3.25C109.01-2.62 109.08-2.09 109.22-1.66C109.37-1.22 109.57-0.87 109.82-0.61C110.07-0.34 110.37-0.15 110.72-0.03C111.07 0.09 111.44 0.14 111.84 0.14C112.24 0.14 112.61 0.09 112.96-0.03C113.30-0.15 113.60-0.34 113.85-0.61C114.10-0.87 114.30-1.22 114.44-1.66C114.59-2.09 114.66-2.62 114.66-3.25L114.66-7.87L113.70-7.87L113.70-3.23C113.70-2.76 113.65-2.36 113.56-2.04C113.46-1.72 113.33-1.46 113.16-1.27C112.99-1.08 112.80-0.94 112.57-0.86C112.35-0.77 112.10-0.73 111.84-0.73C111.58-0.73 111.34-0.77 111.12-0.86C110.90-0.94 110.70-1.08 110.54-1.27C110.37-1.46 110.24-1.72 110.15-2.04C110.05-2.36 110.00-2.76 110.00-3.23L110.00-7.87ZM118.42-7.03L118.42 0L119.42 0L119.42-7.03L121.80-7.03L121.80-7.87L116.04-7.87L116.04-7.03ZM123.22-7.87L123.22 0L124.21 0L124.21-7.87ZM129.28 0.14C129.77 0.14 130.23 0.05 130.64-0.14C131.05-0.34 131.41-0.61 131.71-0.97C132.01-1.32 132.24-1.75 132.40-2.26C132.57-2.77 132.65-3.34 132.65-3.97C132.65-4.60 132.57-5.16 132.40-5.66C132.24-6.16 132.01-6.58 131.71-6.93C131.41-7.28 131.05-7.55 130.64-7.73C130.23-7.92 129.77-8.02 129.28-8.02C128.78-8.02 128.33-7.92 127.91-7.74C127.50-7.56 127.15-7.29 126.85-6.94C126.56-6.59 126.33-6.17 126.16-5.67C126.00-5.17 125.92-4.60 125.92-3.97C125.92-3.34 126.00-2.77 126.16-2.26C126.33-1.75 126.56-1.32 126.85-0.97C127.15-0.61 127.50-0.34 127.91-0.14C128.33 0.05 128.78 0.14 129.28 0.14ZM129.28-0.73C128.92-0.73 128.61-0.81 128.32-0.96C128.04-1.11 127.79-1.33 127.59-1.61C127.39-1.90 127.23-2.24 127.12-2.63C127.00-3.03 126.95-3.48 126.95-3.97C126.95-4.46 127.00-4.90 127.12-5.29C127.23-5.68 127.39-6.02 127.59-6.29C127.79-6.56 128.04-6.77 128.32-6.92C128.61-7.07 128.92-7.14 129.28-7.14C129.63-7.14 129.95-7.07 130.23-6.92C130.51-6.77 130.76-6.56 130.96-6.29C131.17-6.02 131.32-5.68 131.44-5.29C131.55-4.90 131.60-4.46 131.60-3.97C131.60-3.48 131.55-3.03 131.44-2.63C131.32-2.24 131.17-1.90 130.96-1.61C130.76-1.33 130.51-1.11 130.23-0.96C129.95-0.81 129.63-0.73 129.28-0.73ZM134.34-7.87L134.34 0L135.29 0L135.29-4.12C135.29-4.53 135.27-4.95 135.25-5.36C135.22-5.77 135.19-6.18 135.16-6.58L135.20-6.58L136.06-4.96L138.91 0L139.94 0L139.94-7.87L139.00-7.87L139.00-3.80C139.00-3.39 139.01-2.97 139.04-2.54C139.07-2.11 139.09-1.70 139.12-1.30L139.07-1.30L138.22-2.93L135.37-7.87ZM142.13-1.72L141.53-1.02C141.87-0.66 142.28-0.38 142.75-0.17C143.22 0.04 143.74 0.14 144.29 0.14C144.70 0.14 145.08 0.09 145.40-0.03C145.73-0.15 146.01-0.31 146.24-0.51C146.48-0.71 146.65-0.95 146.78-1.22C146.90-1.50 146.96-1.79 146.96-2.10C146.96-2.39 146.92-2.64 146.84-2.86C146.75-3.08 146.64-3.27 146.50-3.44C146.35-3.60 146.18-3.75 145.98-3.87C145.78-3.99 145.57-4.10 145.34-4.20L144.23-4.68C144.07-4.74 143.91-4.81 143.76-4.89C143.61-4.97 143.47-5.05 143.34-5.15C143.21-5.25 143.11-5.37 143.03-5.50C142.96-5.63 142.92-5.80 142.92-5.99C142.92-6.35 143.05-6.63 143.32-6.83C143.59-7.04 143.94-7.14 144.38-7.14C144.75-7.14 145.08-7.07 145.37-6.94C145.67-6.81 145.93-6.63 146.17-6.40L146.71-7.04C146.43-7.33 146.09-7.57 145.69-7.75C145.29-7.93 144.86-8.02 144.38-8.02C144.02-8.02 143.69-7.96 143.39-7.86C143.09-7.76 142.83-7.61 142.61-7.42C142.39-7.23 142.22-7.01 142.10-6.76C141.97-6.50 141.91-6.22 141.91-5.93C141.91-5.64 141.96-5.39 142.06-5.17C142.15-4.95 142.28-4.76 142.43-4.60C142.58-4.44 142.75-4.30 142.94-4.19C143.14-4.08 143.32-3.98 143.51-3.90L144.64-3.41C144.82-3.32 144.99-3.24 145.15-3.16C145.31-3.08 145.45-2.99 145.57-2.89C145.68-2.79 145.77-2.67 145.84-2.53C145.91-2.39 145.94-2.22 145.94-2.02C145.94-1.63 145.80-1.32 145.51-1.09C145.22-0.85 144.82-0.73 144.30-0.73C143.89-0.73 143.50-0.82 143.12-1.00C142.74-1.18 142.41-1.42 142.13-1.72Z" transform="translate(-1.08, 8.016)"></path></g></g></g></g><mask id="48c9579d-f559-438d-bbe8-b96f7f633627"><g fill="white"><rect stroke-width="2" class="i-icon-bg" x="0" y="0" width="109.83000183105469" height="40.150001525878906"></rect> </g> <g transform="translate(5,5)" fill="black"><g><g transform="scale(1)"><path d="M22.83-24.01C20.03-28.20 16.50-28.85 12.43-28.85C7.76-28.85 1.50-26.98 1.63-20.96C1.63-15.72 6.95-14.67 12.15-13.65C16.82-12.76 21.53-11.82 21.49-7.56C21.49-2.52 15.93-1.54 12.43-1.54C8.94-1.54 4.47-3.25 2.72-6.70L0.77-5.73C2.97-1.38 8.00 0.45 12.43 0.45C17.19 0.45 23.65-1.10 23.69-7.52C23.69-13.65 18.00-14.63 12.51-15.68C7.72-16.58 3.82-17.43 3.82-21.05C3.82-25.60 9.10-26.82 12.43-26.82C15.64-26.77 18.97-26.29 21.05-22.96ZM53.31 0L40.55-28.44L38.15-28.44L25.39 0L27.75 0L30.84-6.99L47.82-6.99L50.95 0ZM31.69-9.02L39.33-26.33L46.97-9.02ZM58.71-26.25L75.65-26.25L75.65-28.44L56.51-28.44L56.51 0.04L58.71 0.04L58.71-12.84L75.08-12.84L75.08-14.91L58.71-14.91ZM82.64-26.37L100.11-26.37L100.11-28.44L80.49-28.44L80.49 0L100.60 0L100.60-2.11L82.64-2.11L82.64-13.33L99.30-13.33L99.30-15.32L82.64-15.32Z" transform="translate(-0.7719484190072426, 29.415297650591775)"></path></g></g></g></mask><defs v-gra="od"></defs></g></svg>